<?xml version="1.0" standalone="no"?>
<!DOCTYPE svg PUBLIC "-//W3C//DTD SVG 20010904//EN"
 "http://www.w3.org/TR/2001/REC-SVG-20010904/DTD/svg10.dtd">
<svg version="1.0" xmlns="http://www.w3.org/2000/svg"
 width="320.000000pt" height="300.000000pt" viewBox="-200 0 1300.000000 456.000000"
 preserveAspectRatio="xMidYMid meet">

<g transform="translate(0.000000,456.000000) scale(0.1,-0.1)"
fill="#777777" stroke="none">
<path d="M4571 3810 c-771 -248 -1090 -355 -1107 -371 l-24 -22 -2 -1108 -3
-1108 -55 34 c-30 18 -91 46 -135 61 -72 26 -93 28 -220 29 -128 0 -148 -2
-228 -29 -201 -66 -336 -203 -366 -372 -39 -214 147 -435 419 -498 149 -36
350 -13 488 55 90 44 194 144 234 227 l33 67 3 916 2 916 973 313 c534 172
980 315 990 317 16 5 17 -32 17 -672 l0 -676 -29 21 c-184 130 -485 147 -709
38 -46 -22 -91 -56 -143 -108 -98 -97 -123 -154 -124 -285 0 -83 3 -96 34
-159 135 -275 548 -384 868 -230 142 68 248 197 273 333 6 34 10 511 10 1313
0 1371 2 1316 -55 1338 -15 6 -34 10 -43 9 -9 0 -505 -157 -1101 -349z m1019
-125 l0 -264 -32 -9 c-35 -10 -1914 -611 -1935 -619 -10 -4 -13 52 -13 260 l0
266 253 81 c138 45 576 187 972 315 396 128 728 233 738 234 16 1 17 -18 17
-264z m-287 -1850 c224 -58 340 -230 255 -377 -35 -59 -76 -93 -163 -134 -227
-108 -536 -33 -621 151 -13 28 -24 68 -24 90 1 116 122 232 283 271 72 17 202
17 270 -1z m-2143 -697 c106 -25 216 -103 256 -180 25 -47 23 -133 -3 -183
-46 -88 -157 -161 -281 -185 -86 -17 -232 -8 -303 19 -252 96 -304 324 -104
461 117 80 277 105 435 68z"/>
</g>
</svg>
